<?xml version="1.0" encoding="UTF-8"?>
<svg id="Capa_1" data-name="Capa 1" xmlns="http://www.w3.org/2000/svg" viewBox="0 0 748.75 796.7">
  <path d="m632.57,274.48l33.07-20.2,20,32.75c1.86,3.04,5.83,4,8.87,2.14l51.14-31.24c3.04-1.86,4-5.83,2.14-8.87l-76.51-125.26c-1.86-3.04-5.83-4-8.87-2.14l-51.14,31.24c-3.04,1.86-4,5.83-2.14,8.87l18.54,30.35-32.84,20.06c-74.33-95.03-197.42-135.63-311.46-107.84,4.76,8.15,1.12,21.1-10.99,20.59-16.86-.7-38.24,1.22-52,10.22-.26.17-.55.39-.75.53-.92.79-1.79,1.67-2.64,2.54-1.73,1.75-3.39,3.58-4.98,5.46-4.58,5.4-9.43,10.15-15.18,14.22-9.06,6.41-20.54,10.21-27.58,19.12-5.77,7.3-9.3,16.3-13.62,24.47-4.96,9.37-11.25,16.98-18.65,24.48-12.03,12.18-18.62,28.49-26.06,43.79,4.04,5,2.98,13.31-1.38,17.66-2.8,2.8-6.25,3.95-9.71,3.79-7.88,15.23-15.35,30.7-20.31,47.15-6.4,21.19-6.16,42.31-1.2,63.8,5.02,21.73,13.26,42.55,18.68,64.17,4.94,19.7,9.49,39.47,13.84,59.3,5.08-1.37,10.83.18,14.4,6.14,6.08,10.13,11.53,20.66,16.91,31.26,3.2,3.71,6.62,7.25,9.99,10.62,10.94,10.94,22.86,20.82,34.92,30.48,12.68,10.16,27.95,18.5,41.37,28.48,13.6,10.1,23.93,21.48,32.77,35.61,5.76,2.73,11.5,5.63,17.53,8.05,17.05,6.83,34.14,13.16,49.73,23.05,1.49.95,2.67,2.04,3.61,3.23,61.63,4.86,125.26-8.9,181.94-43.51,80.13-48.94,129.57-129.3,142.22-215.65l42.37.6c3.57.05,6.5-2.8,6.55-6.36l.85-59.92c.05-3.57-2.8-6.5-6.36-6.55l-41.52-.59c-3.08-32.61-11.48-65.08-25.52-96.09Zm-153.78,320.75c-110.03,69.3-255.95,34.04-322.21-77.85-63.54-107.31-29.82-246.88,75.71-313.34,110.03-69.3,255.95-34.04,322.21,77.85,63.54,107.31,29.81,246.88-75.71,313.34Z"/>
  <path d="m556.53,518.43c-36.28,47.67-93.61,78.44-158.16,78.44-109.68,0-198.62-88.87-198.62-198.62s88.95-198.66,198.62-198.66c56.89,0,108.19,23.91,144.39,62.24V115.56c-19.6-10.03-40.36-18.08-62.11-23.88l-8.44-70.95c-1.28-10.84-11.29-19.73-22.22-19.73h-103.39c-10.92,0-20.93,8.89-22.22,19.73l-8.52,70.91c-27.02,7.2-52.58,17.87-76.21,31.52l-56.14-44.06c-8.56-6.74-21.93-6-29.62,1.74l-73.1,73.19c-7.74,7.74-8.52,21.06-1.78,29.66l44.06,56.02c-13.69,23.66-24.24,49.23-31.48,76.29l-70.87,8.48c-10.84,1.28-19.73,11.25-19.73,22.26v103.35c0,10.96,8.89,20.93,19.73,22.17l70.91,8.56c7.24,26.93,17.83,52.5,31.48,76.16l-44.02,56.02c-6.74,8.69-5.96,22.01,1.78,29.75l73.02,73.1c7.7,7.78,21.06,8.56,29.62,1.86l56.14-44.18c23.62,13.65,49.19,24.33,76.21,31.52l8.52,70.91c1.28,10.84,11.29,19.73,22.22,19.73h103.39c10.92,0,20.93-8.89,22.22-19.73l8.52-70.95c26.84-7.15,52.25-17.74,75.79-31.27v-155.32Z" style="fill: #1aa68a; stroke: white; stroke-miterlimit: 10; stroke-width: 2px;"/>
  <path d="m401,236.95v164.11h-164.11c.43-90.45,73.79-163.14,164.11-164.11Z" style="fill: tomato; stroke: white; stroke-miterlimit: 10; stroke-width: 2px;"/>
</svg>
